<svg xmlns="http://www.w3.org/2000/svg" version="1.1" viewBox="-5.0 -10.0 110.0 135.0">
 <path d="m71.477 19.152c-6.375-2.0977-13.695-3.293-21.477-3.293-14.898 0-28.102 4.4023-36.293 11.105-5.7109 4.6758-9.0195 10.473-9.0195 16.711 0 28.652 20.352 50.273 45.312 50.273s45.312-21.621 45.312-50.273c0-7.5039-4.8203-14.395-12.82-19.438 2.8906-3.0586 6.0781-5.7812 9.5312-7.7695 1.7734-1.0195 2.6523-2.5039 2.8633-4.0078 0.32422-2.2578-0.90234-4.6406-3.2852-5.7695-2.2695-1.0781-5.7617-1.0391-9.8047 2.0586-3.207 2.4531-6.7383 5.6406-10.32 10.402zm-62.316 36.641c4.6992 20.57 21.18 35.031 40.84 35.031s36.141-14.461 40.844-35.031c-1.2734 1.625-2.8008 3.1602-4.5508 4.5938-8.1914 6.707-21.395 11.109-36.293 11.109s-28.102-4.4023-36.293-11.109c-1.75-1.4336-3.2773-2.9688-4.5469-4.5938zm54.941-24.328c-4.418-0.92578-9.1602-1.4297-14.102-1.4297-12.348 0-23.48 3.1367-31.258 8.1797-4.7188 3.0586-8.1875 6.8047-9.8516 10.988 1.2773 3.2148 3.6328 6.1758 6.793 8.7656 7.7383 6.332 20.242 10.402 34.316 10.402s26.578-4.0703 34.316-10.402c3.1602-2.5898 5.5195-5.5508 6.793-8.7656-2.3984-6.0312-8.5078-11.148-16.738-14.586-2.332 3.5234-4.2734 6.9453-5.7734 9.7891-0.66406 1.2539-1.7148 1.7656-2.9375 1.8281-1.2305 0.058594-2.7031-0.48047-3.8086-0.96484-1.4805-0.63281-2.2422-2.2734-1.793-3.8008 0.15625-0.63672 0.33203-1.3125 0.40625-1.5156 1.1875-3.1133 2.4023-5.9336 3.6367-8.4883zm-7.7969 17.5c-3.6992 0-6.7031 3.0039-6.7031 6.6992 0 3.6992 3.0039 6.6992 6.7031 6.6992 3.6953 0 6.6992-3 6.6992-6.6992 0-3.6953-3.0039-6.6992-6.6992-6.6992zm-13.125 6.8047c1.0391 0.35547 1.5977 1.4805 1.2461 2.5195-0.35156 1.0391-1.4805 1.5938-2.5156 1.2422-1.0391-0.35156-1.5977-1.4805-1.2461-2.5156 0.35156-1.0391 1.4805-1.5977 2.5156-1.2461zm13.125-3.6797c1.9688 0 3.5742 1.6016 3.5742 3.5742 0 1.9766-1.6055 3.5742-3.5742 3.5742-1.9727 0-3.5781-1.5977-3.5781-3.5742 0-1.9727 1.6055-3.5742 3.5781-3.5742zm27.055-1.9023c0.64844-0.5625 0.71484-1.5508 0.14844-2.2031l-3.7891-4.3359c-0.57031-0.64844-1.5547-0.71875-2.207-0.14844l-9.4102 8.2188c-0.64844 0.56641-0.71484 1.5547-0.14844 2.2031l3.7891 4.3398c0.57031 0.64844 1.5586 0.71875 2.207 0.14844zm-56.867 7.918c0.71875 0.47266 1.6875 0.27734 2.168-0.44141l3.1758-4.8047c0.47266-0.71875 0.27734-1.6914-0.44141-2.168l-10.426-6.8867c-0.72266-0.47656-1.6914-0.27734-2.1641 0.44141l-3.1758 4.8047c-0.48047 0.71875-0.27734 1.6875 0.44141 2.168zm53.633-9.2422-7.0547 6.168s-1.7344-1.9844-1.7344-1.9844l7.0547-6.168zm-53.211 5.7734-7.8164-5.168 1.4531-2.1953 7.8164 5.1641zm15.629-19.207c-3.6953 0-6.6953 3.0039-6.6953 6.6992 0 3.6992 3 6.6992 6.6953 6.6992 3.6992 0 6.6992-3 6.6992-6.6992 0-3.6953-3-6.6992-6.6992-6.6992zm0 3.125c1.9766 0 3.5742 1.6016 3.5742 3.5742 0 1.9766-1.5977 3.5742-3.5742 3.5742-1.9727 0-3.5703-1.5977-3.5703-3.5742 0-1.9727 1.5977-3.5742 3.5703-3.5742zm37.828-11.953c-1.4922 1.7461-2.8945 3.5664-4.1914 5.3867 7.1641 3.1055 12.75 7.457 15.984 12.492 0.015626-0.26562 0.023438-0.53516 0.023438-0.80469 0-6.6797-4.5742-12.66-11.816-17.074zm-10.797-4.7773c-5.8633-1.8203-12.52-2.8398-19.574-2.8398-14.074 0-26.578 4.0625-34.316 10.398-4.9062 4.0156-7.8711 8.9336-7.8711 14.293 0 0.26953 0.007812 0.53516 0.023438 0.80078 2.125-3.3125 5.2617-6.3281 9.2031-8.8828 8.207-5.3242 19.938-8.6836 32.961-8.6836 5.4688 0 10.711 0.58984 15.555 1.6719 1.3281-2.5195 2.6719-4.7578 4.0195-6.7578zm-40.395 18.426c1.0391 0.35156 1.5977 1.4805 1.2461 2.5156-0.35156 1.0391-1.4805 1.5938-2.5156 1.2461-1.043-0.35547-1.5977-1.4805-1.2461-2.5195 0.35156-1.0391 1.4805-1.5938 2.5156-1.2422zm36.656 2.6992c-0.125 0.22656-0.375 0.17578-0.60547 0.15234-0.72656-0.078124-1.5117-0.42578-2.1367-0.69531-0.003906 0-0.003906-0.003906-0.007812-0.003906-0.019532-0.011719-0.03125-0.035156-0.027344-0.058594 0.011718-0.035156 0.019531-0.066406 0.027344-0.097656 0.125-0.49219 0.24219-1.0234 0.30078-1.1797 6.6055-17.344 14.078-25.062 20.309-29.836 3.2812-2.5117 5.9219-2.5 7.3125-1.2148 0.46094 0.42188 0.75 0.97266 0.79688 1.5469 0.074218 0.82031-0.375 1.6406-1.3438 2.1992-11.273 6.4922-20.012 20.422-24.625 29.188zm-10.879-6.668c1.0352 0.34766 1.5938 1.4766 1.2383 2.5156-0.34766 1.0352-1.4766 1.5938-2.5156 1.2422-1.0352-0.35156-1.5938-1.4766-1.2422-2.5156 0.35156-1.0391 1.4766-1.5977 2.5195-1.2422z" fill-rule="evenodd"/>
<text x="0.0" y="117.5" font-size="5.0" font-weight="bold" font-family="Arbeit Regular, Helvetica, Arial-Unicode, Arial, Sans-serif" fill="#000000">Created by rendicon</text><text x="0.0" y="122.5" font-size="5.0" font-weight="bold" font-family="Arbeit Regular, Helvetica, Arial-Unicode, Arial, Sans-serif" fill="#000000">from Noun Project</text></svg>